<svg width="46" height="46" viewBox="0 0 46 46" fill="none" xmlns="http://www.w3.org/2000/svg">
<path d="M35.8 24.4224V13.4002C35.8 11.6329 34.3673 10.2002 32.6 10.2002H13.4C11.6326 10.2002 10.2 11.6329 10.2 13.4002V24.4224M30.1108 28.6891C31.6509 28.6799 33.1509 29.1799 34.3775 30.1114M11.6219 30.1113C12.8278 29.1958 14.3024 28.7044 15.8164 28.7134M27.2664 35.8002C24.738 33.9039 21.2615 33.9039 18.7331 35.8002M24.7597 26.9799C25.4716 27.6918 25.6845 28.7623 25.2993 29.6923C24.914 30.6223 24.0065 31.2287 22.9998 31.2287C21.9932 31.2287 21.0856 30.6223 20.7004 29.6923C20.3152 28.7623 20.5281 27.6918 21.2399 26.9799C22.2119 26.008 23.7878 26.008 24.7597 26.9799ZM31.1597 20.58C32.1317 21.552 32.1317 23.1279 31.1597 24.0998C30.1877 25.0718 28.6119 25.0718 27.6399 24.0998C26.6679 23.1279 26.6679 21.552 27.6399 20.58C28.1066 20.1133 28.7397 19.851 29.3998 19.851C30.0599 19.851 30.693 20.1133 31.1597 20.58ZM19.0888 22.6447C19.0888 24.0193 17.9745 25.1336 16.5999 25.1336C15.2253 25.1336 14.111 24.0193 14.111 22.6447C14.111 21.2701 15.2253 20.1558 16.5999 20.1558C17.9745 20.1558 19.0888 21.2701 19.0888 22.6447Z" stroke="#717680" stroke-width="2.2" stroke-linecap="round" stroke-linejoin="round"/>
</svg>
