<svg width="46" height="46" viewBox="0 0 46 46" fill="none" xmlns="http://www.w3.org/2000/svg">
<path d="M19 15C19 20.1547 16.0152 24.3333 12.3333 24.3333M12.3333 24.3333C16.0152 24.3333 19 29.109 19 35L12.3333 35C11.5969 35 11 34.4031 11 33.6667V14.8849M12.3333 24.3333H11M27.6666 26.3333H27M32.3333 26.3333H31.6666M31.3333 30.4849C30.8518 30.8155 30.2826 30.9948 29.6986 31C29.0888 30.9937 28.4957 30.7997 28 30.4444M35 17.6667V14.886M11 15H35C35.7363 15 36.3333 14.403 36.3333 13.6667V12.3333C36.3333 11.597 35.7363 11 35 11H11C10.2636 11 9.66663 11.597 9.66663 12.3333V13.6667C9.66663 14.403 10.2636 15 11 15ZM23 24.3289V28.3363C23 30.8596 24.4257 33.1664 26.6826 34.2949L26.6853 34.2962C28.5621 35.2346 30.7713 35.2346 32.6481 34.2962L32.6508 34.2949C34.9077 33.1664 36.3333 30.8596 36.3333 28.3363V24.3289C36.3344 23.5475 35.9916 22.8052 35.396 22.2993C34.8004 21.7934 34.0123 21.5752 33.2414 21.7028C30.8731 22.079 28.4602 22.079 26.0919 21.7028C25.3209 21.5752 24.5329 21.7934 23.9373 22.2993C23.3417 22.8052 22.9989 23.5475 23 24.3289Z" stroke="#717680" stroke-width="2.2" stroke-linecap="round" stroke-linejoin="round"/>
</svg>
