<svg width="46" height="46" viewBox="0 0 46 46" fill="none" xmlns="http://www.w3.org/2000/svg">
<path d="M28.8117 28.3356H17.1882M21.1898 32.3372L15.1913 26.3387C13.5747 24.7221 12.5769 22.5919 12.3702 20.3149C11.8499 14.5939 16.3545 9.66113 22.0995 9.66113H23.9016C29.6467 9.66113 34.1512 14.5939 33.631 20.3149C33.4243 22.5905 32.4252 24.7221 30.8098 26.3387L24.81 32.3372M19.9986 32.3372H26.0011C26.1852 32.3372 26.3346 32.4866 26.3346 32.6707V35.005C26.3346 35.7413 25.737 36.3389 25.0007 36.3389H20.9991C20.2627 36.3389 19.6652 35.7413 19.6652 35.005V32.6707C19.6652 32.4866 19.8146 32.3372 19.9986 32.3372ZM22.9998 28.3356C25.358 28.3356 27.2696 24.1552 27.2696 18.9984C27.2696 13.8416 25.358 9.66113 22.9998 9.66113C20.6417 9.66113 18.73 13.8416 18.73 18.9984C18.73 24.1552 20.6417 28.3356 22.9998 28.3356Z" stroke="#717680" stroke-width="2.2" stroke-linecap="round" stroke-linejoin="round"/>
</svg>
