<svg width="46" height="46" viewBox="0 0 46 46" fill="none" xmlns="http://www.w3.org/2000/svg">
<path d="M18.3333 30.7077V17.6184C18.3333 17.065 18.6746 16.569 19.192 16.373L30.5253 12.0557C31.3986 11.7224 32.3333 12.3677 32.3333 13.301V28.033M31.357 25.676C32.6587 26.9778 32.6587 29.0883 31.357 30.3901C30.0552 31.6918 27.9447 31.6918 26.6429 30.3901C25.3412 29.0883 25.3412 26.9778 26.6429 25.676C27.9447 24.3743 30.0552 24.3743 31.357 25.676ZM17.357 28.3427C18.6587 29.6444 18.6587 31.755 17.357 33.0567C16.0552 34.3585 13.9447 34.3585 12.6429 33.0567C11.3412 31.755 11.3412 29.6444 12.6429 28.3427C13.9447 27.0409 16.0552 27.0409 17.357 28.3427Z" stroke="#717680" stroke-width="2.2" stroke-linecap="round" stroke-linejoin="round"/>
</svg>
