<svg width="46" height="46" viewBox="0 0 46 46" fill="none" xmlns="http://www.w3.org/2000/svg">
<path d="M20.2135 16.7909H23M23 16.7909L25.1716 15.4677C25.5185 15.2563 25.9428 15.2146 26.3242 15.3543C26.7057 15.494 27.0027 15.7999 27.131 16.1853L30.203 25.4011L34.5248 31.1635C35.0705 31.8911 35.1582 32.8645 34.7515 33.6779C34.3448 34.4913 33.5134 35.0051 32.604 35.0051H27.3618C25.8794 35.006 24.4637 34.3893 23.4548 33.3031L12.0621 21.0406C11.3222 20.2427 10.9393 19.1778 11.0014 18.0913C11.0636 17.0049 11.5655 15.9906 12.3916 15.2822L16.9575 11.3699C17.4159 10.9773 18.0609 10.8873 18.6093 11.1395C19.1577 11.3918 19.5091 11.9402 19.5092 12.5438V16.7909H23ZM10.9949 30.3365H13.6627M17.6643 35.0051H10.9949M34.4006 31.0035H27.6992C26.5888 31.0065 25.5277 30.5451 24.7726 29.7309L11.8686 15.8345M24.3339 24.334L29.5427 23.4323M22.9999 20.9993L28.4208 20.0615" stroke="#717680" stroke-width="2.2" stroke-linecap="round" stroke-linejoin="round"/>
</svg>
