<svg width="46" height="46" viewBox="0 0 46 46" fill="none" xmlns="http://www.w3.org/2000/svg">
<path d="M20.1534 19.383L26.9014 28.3083C27.272 28.799 27.224 29.487 26.7894 29.9216L25.92 30.791C25.4854 31.2256 24.7974 31.2723 24.3067 30.903L15.3814 24.155M36.3334 21.667L34.0053 19.339C32.7373 18.071 30.6827 18.071 29.4147 19.339C28.1467 20.607 28.1467 22.6616 29.4147 23.9296L32.704 27.219C34.0133 28.5283 34.0133 30.6523 32.704 31.9616C31.3947 33.271 29.2707 33.271 27.9613 31.9616L26.3547 30.355M15.0681 24.4683L20.4694 19.067C20.4681 16.0857 18.0507 13.667 15.0681 13.667C12.0854 13.667 9.66675 16.0857 9.66675 19.0683C9.66675 22.051 12.0854 24.4683 15.0681 24.4683Z" stroke="#717680" stroke-width="2.2" stroke-linecap="round" stroke-linejoin="round"/>
</svg>
